<svg width="24" height="24" viewBox="0 0 24 24" fill="none" xmlns="http://www.w3.org/2000/svg">
<g clip-path="url(#clip0_15_484)">
<path d="M12 24C18.6274 24 24 18.6274 24 12C24 5.37258 18.6274 0 12 0C5.37258 0 0 5.37258 0 12C0 18.6274 5.37258 24 12 24Z" fill="#D80027"/>
<path d="M15.5834 9.17969L16.8521 10.9279L18.9067 10.2617L17.636 12.0084L18.9045 13.7566L16.8506 13.0879L15.58 14.8346L15.5814 12.6747L13.5275 12.006L15.5821 11.3398L15.5834 9.17969Z" fill="#F0F0F0"/>
<path d="M12.1212 16.3768C9.70791 16.3768 7.75149 14.4204 7.75149 12.0071C7.75149 9.59386 9.70791 7.63744 12.1212 7.63744C12.8736 7.63744 13.5816 7.82775 14.1997 8.16266C13.23 7.21429 11.9039 6.62903 10.4405 6.62903C7.47027 6.62903 5.0625 9.03686 5.0625 12.0071C5.0625 14.9773 7.47033 17.3851 10.4405 17.3851C11.904 17.3851 13.2301 16.7998 14.1997 15.8515C13.5816 16.1865 12.8736 16.3768 12.1212 16.3768Z" fill="#F0F0F0"/>
</g>
<defs>
<clipPath id="clip0_15_484">
<rect width="24" height="24" fill="white"/>
</clipPath>
</defs>
</svg>
