<svg width="30" height="30" viewBox="0 0 30 30" fill="none" xmlns="http://www.w3.org/2000/svg">
<path fill-rule="evenodd" clip-rule="evenodd" d="M9.2732 2.76759C9.17933 2.41749 8.95023 2.11901 8.63629 1.93782C8.32235 1.75664 7.9493 1.70758 7.59919 1.80145C7.24908 1.89532 6.95061 2.12442 6.76942 2.43836C6.58823 2.7523 6.53918 3.12535 6.63305 3.47546L6.98698 4.79554C7.08085 5.14565 7.30995 5.44412 7.62389 5.62531C7.93783 5.8065 8.31089 5.85555 8.66099 5.76168C9.0111 5.66781 9.30958 5.43871 9.49076 5.12477C9.67195 4.81083 9.72101 4.43778 9.62714 4.08767L9.2732 2.76759ZM3.47497 6.63354C3.30131 6.5862 3.12002 6.57363 2.94149 6.59656C2.76296 6.61949 2.59073 6.67746 2.43467 6.76714C2.27861 6.85682 2.1418 6.97645 2.03211 7.11916C1.92242 7.26187 1.842 7.42484 1.79547 7.59871C1.74894 7.77259 1.73722 7.95394 1.76098 8.13236C1.78474 8.31078 1.84352 8.48274 1.93393 8.63838C2.02434 8.79402 2.1446 8.93026 2.28782 9.03929C2.43104 9.14832 2.59438 9.22797 2.76847 9.27369L4.08855 9.62763C4.43802 9.7194 4.80962 9.66903 5.12206 9.48754C5.43449 9.30604 5.66233 9.0082 5.75573 8.65915C5.84914 8.31011 5.8005 7.93828 5.62047 7.625C5.44043 7.31173 5.14365 7.0825 4.79505 6.98747L3.47497 6.63354ZM15.5197 5.85597C15.6465 5.72901 15.7472 5.5783 15.8158 5.41244C15.8844 5.24659 15.9197 5.06884 15.9197 4.88935C15.9196 4.70985 15.8842 4.53213 15.8154 4.36633C15.7467 4.20052 15.6459 4.04988 15.519 3.923C15.392 3.79613 15.2413 3.6955 15.0754 3.62687C14.9096 3.55824 14.7318 3.52295 14.5524 3.52301C14.3729 3.52308 14.1951 3.55849 14.0293 3.62724C13.8635 3.69599 13.7129 3.79672 13.586 3.92369L12.6199 4.88983C12.4929 5.0168 12.3922 5.16753 12.3235 5.33341C12.2548 5.4993 12.2194 5.6771 12.2194 5.85666C12.2194 6.03621 12.2548 6.21401 12.3235 6.3799C12.3922 6.54579 12.4929 6.69652 12.6199 6.82349C12.7468 6.95045 12.8976 7.05117 13.0634 7.11988C13.2293 7.18859 13.4071 7.22396 13.5867 7.22396C13.7662 7.22396 13.944 7.18859 14.1099 7.11988C14.2758 7.05117 14.4266 6.95045 14.5535 6.82349L15.5197 5.85597ZM5.85685 15.5201L6.823 14.554C7.0796 14.2978 7.2239 13.9501 7.22415 13.5875C7.22441 13.2248 7.0806 12.8769 6.82436 12.6203C6.56812 12.3637 6.22045 12.2194 5.85782 12.2192C5.49519 12.2189 5.14731 12.3627 4.89071 12.619L3.9232 13.5851C3.66678 13.8415 3.52272 14.1893 3.52272 14.552C3.52272 14.9146 3.66678 15.2624 3.9232 15.5188C4.17962 15.7752 4.52739 15.9193 4.89002 15.9193C5.25265 15.9193 5.60043 15.7752 5.85685 15.5188V15.5201ZM10.2298 8.45377C9.98144 8.35436 9.70939 8.33003 9.44735 8.38378C9.18532 8.43754 8.94482 8.56701 8.75567 8.75616C8.56652 8.9453 8.43705 9.1858 8.38329 9.44784C8.32954 9.70988 8.35387 9.98193 8.45328 10.2303L13.9194 23.8957C14.0174 24.1403 14.1839 24.3513 14.399 24.5034C14.6141 24.6555 14.8686 24.7422 15.1319 24.7531C15.3951 24.7639 15.6559 24.6984 15.8827 24.5645C16.1096 24.4305 16.2929 24.2339 16.4106 23.9982L18.2965 20.2279L22.4207 24.3548C22.6771 24.6111 23.0248 24.7549 23.3873 24.7548C23.7498 24.7547 24.0974 24.6106 24.3537 24.3541C24.6099 24.0977 24.7538 23.75 24.7537 23.3875C24.7535 23.025 24.6094 22.6774 24.353 22.4212L20.2274 18.2942L23.999 16.4098C24.2343 16.2918 24.4305 16.1084 24.564 15.8816C24.6976 15.6548 24.7628 15.3942 24.7518 15.1313C24.7408 14.8683 24.6541 14.6141 24.5022 14.3992C24.3502 14.1843 24.1395 14.0179 23.8952 13.9199L10.2298 8.45377Z" fill="white"/>
</svg>
