<svg width="72" height="72" viewBox="0 0 72 72" fill="none" xmlns="http://www.w3.org/2000/svg">
<rect width="71.0929" height="71.0929" rx="13.6717" fill="url(#paint0_linear_81_3731)"/>
<mask id="mask0_81_3731" style="mask-type:alpha" maskUnits="userSpaceOnUse" x="0" y="0" width="72" height="72">
<rect width="71.0929" height="71.0929" rx="13.6717" fill="#0083FF"/>
</mask>
<g mask="url(#mask0_81_3731)">
</g>
<path d="M20.289 18.1768C22.7677 13.8836 28.3621 12.456 32.804 15.0205C26.0909 11.1447 17.5908 13.2885 13.8277 19.8064C10.0646 26.3242 12.4581 34.7574 19.1712 38.6332L23.8243 30.5737C19.3712 28.0287 17.7991 22.4895 20.289 18.1768Z" fill="#4CDAFE"/>
<path d="M32.7729 15.0279C28.3512 12.475 22.748 13.8715 20.258 18.1842C17.7793 22.4774 19.3402 28.0361 23.7821 30.6006L25.9566 26.8343L32.7729 15.0279Z" fill="#FC8AFF"/>
<path d="M31.6551 35.4843C29.1764 39.7775 23.5821 41.2051 19.1402 38.6406C25.8533 42.5164 34.3534 40.3726 38.1165 33.8548C41.8796 27.3369 39.486 18.9037 32.773 15.0279L28.1198 23.0874C32.5416 25.6404 34.1338 31.1911 31.6551 35.4843Z" fill="#FC8AFF"/>
<path d="M19.1398 38.6411C23.5615 41.194 29.1648 39.7975 31.6547 35.4848C34.1334 31.1916 32.5725 25.6329 28.1306 23.0684L25.9562 26.8347L19.1398 38.6411Z" fill="#4CDAFE"/>
<path d="M32.7729 15.0279C28.3512 12.475 22.748 13.8715 20.258 18.1842C17.7793 22.4774 19.3402 28.0361 23.7821 30.6006L25.9566 26.8343L32.7729 15.0279Z" fill="url(#paint1_linear_81_3731)"/>
<path d="M32.7729 15.0279C28.3512 12.475 22.748 13.8715 20.258 18.1842C17.7793 22.4774 19.3402 28.0361 23.7821 30.6006L25.9566 26.8343L32.7729 15.0279Z" fill="url(#paint2_linear_81_3731)"/>
<path d="M19.1398 38.6411C23.5615 41.194 29.1648 39.7975 31.6547 35.4848C34.1334 31.1916 32.5725 25.6329 28.1306 23.0684L25.9562 26.8347L19.1398 38.6411Z" fill="url(#paint3_linear_81_3731)"/>
<path d="M28.1196 23.0881C25.9891 21.8581 23.2917 22.5384 22.0974 24.6069C20.9031 26.6755 21.6627 29.3517 23.7932 30.5817L24.841 28.7669L28.1196 23.0881Z" fill="url(#paint4_linear_81_3731)"/>
<path d="M23.8154 30.5426C25.9459 31.7727 28.6233 31.0808 29.8063 29.0317C31.0006 26.9632 30.2297 24.3065 28.1193 23.088L27.0828 24.8834L23.8154 30.5426Z" fill="url(#paint5_linear_81_3731)"/>
<path d="M51.8615 53.2585C49.4108 57.5032 43.8797 58.9146 39.488 56.3791C46.1252 60.2111 54.5293 58.0916 58.2498 51.6474C61.9704 45.2032 59.6039 36.8653 52.9667 33.0333L48.3661 41.0018C52.769 43.518 54.3233 48.9945 51.8615 53.2585Z" fill="#67EB00"/>
<path d="M39.5186 56.3717C43.8904 58.8958 49.4302 57.5151 51.892 53.2511C54.3427 49.0064 52.7995 43.5106 48.4078 40.9751L46.2579 44.6988L39.5186 56.3717Z" fill="#FFDB0A"/>
<path d="M40.624 36.1465C43.0747 31.9018 48.6058 30.4904 52.9975 33.0259C46.3603 29.1939 37.9562 31.3134 34.2357 37.7576C30.5151 44.2018 32.8816 52.5397 39.5188 56.3717L44.1194 48.4032C39.7476 45.8792 38.1733 40.3912 40.624 36.1465Z" fill="#FFDB0A"/>
<path d="M52.9973 33.0254C48.6255 30.5014 43.0856 31.882 40.6238 36.146C38.1731 40.3907 39.7164 45.8865 44.1081 48.4221L46.258 44.6983L52.9973 33.0254Z" fill="#67EB00"/>
<path d="M39.5186 56.3717C43.8904 58.8958 49.4302 57.5151 51.892 53.2511C54.3427 49.0064 52.7995 43.5106 48.4078 40.9751L46.2579 44.6988L39.5186 56.3717Z" fill="url(#paint6_linear_81_3731)"/>
<path d="M39.5186 56.3717C43.8904 58.8958 49.4302 57.5151 51.892 53.2511C54.3427 49.0064 52.7995 43.5106 48.4078 40.9751L46.2579 44.6988L39.5186 56.3717Z" fill="url(#paint7_linear_81_3731)"/>
<path d="M52.9973 33.0254C48.6255 30.5014 43.0856 31.882 40.6238 36.146C38.1731 40.3907 39.7164 45.8865 44.1081 48.4221L46.258 44.6983L52.9973 33.0254Z" fill="url(#paint8_linear_81_3731)"/>
<path d="M44.1194 48.4026C46.2258 49.6187 48.8928 48.9461 50.0735 46.9009C51.2543 44.8557 50.5033 42.2098 48.3969 40.9936L47.361 42.788L44.1194 48.4026Z" fill="url(#paint9_linear_81_3731)"/>
<path d="M48.3745 41.0323C46.2681 39.8161 43.621 40.5002 42.4514 42.5261C41.2706 44.5712 42.0327 47.1979 44.1193 48.4026L45.1441 46.6275L48.3745 41.0323Z" fill="url(#paint10_linear_81_3731)"/>
<defs>
<linearGradient id="paint0_linear_81_3731" x1="42.1403" y1="1.60667e-06" x2="41.1983" y2="71.0929" gradientUnits="userSpaceOnUse">
<stop stop-color="white"/>
<stop offset="1" stop-color="#DBDBDB"/>
</linearGradient>
<linearGradient id="paint1_linear_81_3731" x1="20.5563" y1="18.3423" x2="28.044" y2="22.6653" gradientUnits="userSpaceOnUse">
<stop stop-opacity="0.25"/>
<stop offset="1" stop-opacity="0"/>
</linearGradient>
<linearGradient id="paint2_linear_81_3731" x1="20.5563" y1="18.3423" x2="28.044" y2="22.6653" gradientUnits="userSpaceOnUse">
<stop stop-opacity="0.25"/>
<stop offset="1" stop-opacity="0"/>
</linearGradient>
<linearGradient id="paint3_linear_81_3731" x1="31.2775" y1="35.2786" x2="23.2842" y2="30.6637" gradientUnits="userSpaceOnUse">
<stop stop-opacity="0.25"/>
<stop offset="1" stop-opacity="0"/>
</linearGradient>
<linearGradient id="paint4_linear_81_3731" x1="25.75" y1="26.7229" x2="22.074" y2="24.6006" gradientUnits="userSpaceOnUse">
<stop stop-opacity="0.25"/>
<stop offset="1" stop-opacity="0"/>
</linearGradient>
<linearGradient id="paint5_linear_81_3731" x1="25.9684" y1="26.8188" x2="29.7909" y2="29.0257" gradientUnits="userSpaceOnUse">
<stop stop-opacity="0.25"/>
<stop offset="1" stop-opacity="0"/>
</linearGradient>
<linearGradient id="paint6_linear_81_3731" x1="51.5971" y1="53.0948" x2="44.1941" y2="48.8207" gradientUnits="userSpaceOnUse">
<stop stop-opacity="0.25"/>
<stop offset="1" stop-opacity="0"/>
</linearGradient>
<linearGradient id="paint7_linear_81_3731" x1="51.5971" y1="53.0948" x2="44.1941" y2="48.8207" gradientUnits="userSpaceOnUse">
<stop stop-opacity="0.25"/>
<stop offset="1" stop-opacity="0"/>
</linearGradient>
<linearGradient id="paint8_linear_81_3731" x1="40.9968" y1="36.3499" x2="48.8997" y2="40.9127" gradientUnits="userSpaceOnUse">
<stop stop-opacity="0.25"/>
<stop offset="1" stop-opacity="0"/>
</linearGradient>
<linearGradient id="paint9_linear_81_3731" x1="46.4622" y1="44.8088" x2="50.0967" y2="46.9071" gradientUnits="userSpaceOnUse">
<stop stop-opacity="0.25"/>
<stop offset="1" stop-opacity="0"/>
</linearGradient>
<linearGradient id="paint10_linear_81_3731" x1="46.2459" y1="44.714" x2="42.4666" y2="42.532" gradientUnits="userSpaceOnUse">
<stop stop-opacity="0.25"/>
<stop offset="1" stop-opacity="0"/>
</linearGradient>
</defs>
</svg>
