<svg width="393" height="852" viewBox="0 0 393 852" fill="none" xmlns="http://www.w3.org/2000/svg">
<g clip-path="url(#clip0_39_3213)">
<rect width="393" height="852" fill="white"/>
<g filter="url(#filter0_d_39_3213)">
<rect width="401.822" height="852" fill="url(#paint0_linear_39_3213)"/>
</g>
<path fill-rule="evenodd" clip-rule="evenodd" d="M-160.803 365.003L102.121 619.837L-15.5711 274.878C-13.8092 274.272 -12.0414 273.677 -10.2681 273.095L74.5366 255.55C83.7032 254.709 92.9626 254.189 102.303 254L117.848 607.639L274.865 290.65C297.342 301.253 318.63 313.961 338.477 328.519L159.043 607.639L453.3 462.472C472.184 498.852 485.451 538.616 491.951 580.615L159.043 636.1L490.043 710.969C485.06 737.871 477.289 763.795 467.041 788.429L159.043 656.43L362.957 932.313C336.189 955.487 306.204 975.045 273.761 990.224L142.779 672.693L90.5946 1025.94C75.7502 1025.2 61.1266 1023.62 46.7703 1021.24L33.0008 1018.29L118.384 672.693L-143.922 931.025C-179.703 899.728 -209.659 861.935 -231.947 819.486L102.121 656.43H-275.664C-275.887 651.04 -276 645.622 -276 640.178C-276 619.87 -274.433 599.929 -271.413 580.468L102.121 636.1L-219.576 439.061C-203.042 412.003 -183.271 387.137 -160.803 365.003Z" fill="url(#paint1_radial_39_3213)" fill-opacity="0.5"/>
<g opacity="0.41036" filter="url(#filter1_f_39_3213)">
<path d="M355.975 63.6672C391.37 75.4758 415.598 104.95 431.373 137.106C446.339 167.614 448.92 201.416 439.446 233.819C429.573 267.591 411.199 300.116 378.745 317.112C345.575 334.483 305.296 334.551 269.437 322.854C234.539 311.47 207.18 286.555 190.195 255.608C173.247 224.73 167.649 189.357 177.824 155.939C188.262 121.656 212.057 92.1503 245.186 74.9912C279.037 57.4582 319.563 51.5197 355.975 63.6672Z" fill="#6842FF" fill-opacity="0.5"/>
</g>
<g opacity="0.41036" filter="url(#filter2_f_39_3213)">
<path d="M486.982 372.996C518.722 384.148 540.485 412.101 554.677 442.618C568.142 471.57 570.514 503.675 562.08 534.472C553.291 566.571 536.882 597.5 507.828 613.705C478.133 630.267 442.038 630.405 409.883 619.36C378.59 608.611 354.029 584.994 338.754 555.628C323.513 526.328 318.435 492.738 327.495 460.975C336.789 428.389 358.062 400.318 387.72 383.957C418.025 367.24 454.332 361.524 486.982 372.996Z" fill="#6842FF"/>
</g>
<g opacity="0.41036" filter="url(#filter3_f_39_3213)">
<path d="M122.982 385.996C154.722 397.148 176.485 425.101 190.677 455.618C204.142 484.57 206.514 516.675 198.08 547.472C189.291 579.571 172.882 610.5 143.828 626.705C114.133 643.267 78.0376 643.405 45.883 632.36C14.5897 621.611 -9.97089 597.994 -25.2461 568.628C-40.4873 539.328 -45.565 505.738 -36.5052 473.975C-27.2107 441.389 -5.93825 413.318 23.7202 396.957C54.0251 380.24 90.3315 374.524 122.982 385.996Z" fill="#9C85F8"/>
</g>
<g opacity="0.41036" filter="url(#filter4_f_39_3213)">
<path d="M92.9823 -53.0037C124.722 -41.8517 146.485 -13.8986 160.677 16.6183C174.142 45.5699 176.514 77.6745 168.08 108.472C159.291 140.571 142.882 171.5 113.828 187.705C84.1334 204.267 48.0376 204.405 15.883 193.36C-15.4103 182.611 -39.9709 158.994 -55.2461 129.628C-70.4873 100.328 -75.565 66.7377 -66.5052 34.9749C-57.2107 2.38942 -35.9383 -25.6823 -6.27981 -42.0428C24.0251 -58.76 60.3315 -64.4757 92.9823 -53.0037Z" fill="#9C85F8"/>
</g>
<g filter="url(#filter5_f_39_3213)">
<path d="M492.755 773.84C502.45 794.447 503.799 816.846 509.962 838.777C519.874 874.049 552.339 907.92 540.155 942.514C528.76 974.867 488.683 994.042 454.486 996.283C420.889 998.485 396.45 965.236 364.73 954.012C342.06 945.989 318.119 947.254 295.215 939.922C263.792 929.862 225.724 928.8 205.227 902.95C184.558 876.881 186.102 839.275 189.112 806.101C192.144 772.675 200.443 738.227 222.472 712.879C243.892 688.232 277.959 681.38 308.191 669.079C337.393 657.198 367.342 631.448 397.064 641.842C428.075 652.686 434.857 693.52 454.138 720.117C467.307 738.282 483.202 753.533 492.755 773.84Z" fill="#9069FD" fill-opacity="0.2"/>
</g>
</g>
<defs>
<filter id="filter0_d_39_3213" x="-4.60541" y="0" width="411.032" height="861.211" filterUnits="userSpaceOnUse" color-interpolation-filters="sRGB">
<feFlood flood-opacity="0" result="BackgroundImageFix"/>
<feColorMatrix in="SourceAlpha" type="matrix" values="0 0 0 0 0 0 0 0 0 0 0 0 0 0 0 0 0 0 127 0" result="hardAlpha"/>
<feOffset dy="4.60541"/>
<feGaussianBlur stdDeviation="2.3027"/>
<feComposite in2="hardAlpha" operator="out"/>
<feColorMatrix type="matrix" values="0 0 0 0 0 0 0 0 0 0 0 0 0 0 0 0 0 0 0.25 0"/>
<feBlend mode="normal" in2="BackgroundImageFix" result="effect1_dropShadow_39_3213"/>
<feBlend mode="normal" in="SourceGraphic" in2="effect1_dropShadow_39_3213" result="shape"/>
</filter>
<filter id="filter1_f_39_3213" x="157.742" y="42.2768" width="302.269" height="303.716" filterUnits="userSpaceOnUse" color-interpolation-filters="sRGB">
<feFlood flood-opacity="0" result="BackgroundImageFix"/>
<feBlend mode="normal" in="SourceGraphic" in2="BackgroundImageFix" result="shape"/>
<feGaussianBlur stdDeviation="7.5" result="effect1_foregroundBlur_39_3213"/>
</filter>
<filter id="filter2_f_39_3213" x="308" y="352" width="274" height="290" filterUnits="userSpaceOnUse" color-interpolation-filters="sRGB">
<feFlood flood-opacity="0" result="BackgroundImageFix"/>
<feBlend mode="normal" in="SourceGraphic" in2="BackgroundImageFix" result="shape"/>
<feGaussianBlur stdDeviation="7.5" result="effect1_foregroundBlur_39_3213"/>
</filter>
<filter id="filter3_f_39_3213" x="-56" y="365" width="274" height="290" filterUnits="userSpaceOnUse" color-interpolation-filters="sRGB">
<feFlood flood-opacity="0" result="BackgroundImageFix"/>
<feBlend mode="normal" in="SourceGraphic" in2="BackgroundImageFix" result="shape"/>
<feGaussianBlur stdDeviation="7.5" result="effect1_foregroundBlur_39_3213"/>
</filter>
<filter id="filter4_f_39_3213" x="-86" y="-74" width="274" height="290" filterUnits="userSpaceOnUse" color-interpolation-filters="sRGB">
<feFlood flood-opacity="0" result="BackgroundImageFix"/>
<feBlend mode="normal" in="SourceGraphic" in2="BackgroundImageFix" result="shape"/>
<feGaussianBlur stdDeviation="7.5" result="effect1_foregroundBlur_39_3213"/>
</filter>
<filter id="filter5_f_39_3213" x="172.352" y="624.423" width="385.5" height="386.964" filterUnits="userSpaceOnUse" color-interpolation-filters="sRGB">
<feFlood flood-opacity="0" result="BackgroundImageFix"/>
<feBlend mode="normal" in="SourceGraphic" in2="BackgroundImageFix" result="shape"/>
<feGaussianBlur stdDeviation="7.5" result="effect1_foregroundBlur_39_3213"/>
</filter>
<linearGradient id="paint0_linear_39_3213" x1="200.911" y1="0" x2="200.911" y2="852" gradientUnits="userSpaceOnUse">
<stop stop-color="#9C59FE"/>
<stop offset="1" stop-color="#6F53FD"/>
</linearGradient>
<radialGradient id="paint1_radial_39_3213" cx="0" cy="0" r="1" gradientUnits="userSpaceOnUse" gradientTransform="translate(107.976 639.972) rotate(90) scale(385.972 383.976)">
<stop offset="0.53125" stop-color="#F9F9F9"/>
<stop offset="1" stop-color="white" stop-opacity="0"/>
</radialGradient>
<clipPath id="clip0_39_3213">
<rect width="393" height="852" fill="white"/>
</clipPath>
</defs>
</svg>
