<svg width="29" height="31" viewBox="0 0 29 31" fill="none" xmlns="http://www.w3.org/2000/svg">
<g filter="url(#filter0_d_81_3441)">
<circle cx="14.72" cy="14" r="14" fill="#FF4672"/>
<circle cx="14.72" cy="14" r="12.5" stroke="white" stroke-width="3"/>
</g>
<mask id="path-3-inside-1_81_3441" fill="white">
<path fill-rule="evenodd" clip-rule="evenodd" d="M20.9683 8.3491C20.0825 7.42589 18.6159 7.39561 17.6927 8.28145L14.7361 11.1184L11.7795 8.28145C10.8563 7.39561 9.38978 7.42589 8.50393 8.3491C7.61808 9.27231 7.64836 10.7388 8.57157 11.6247L11.39 14.3291L8.43269 17.1668C7.50948 18.0526 7.47919 19.5191 8.36504 20.4424C9.25089 21.3656 10.7174 21.3959 11.6406 20.51L14.7361 17.5398L17.8316 20.51C18.7548 21.3959 20.2213 21.3656 21.1072 20.4424C21.993 19.5191 21.9627 18.0526 21.0395 17.1668L18.0822 14.3291L20.9007 11.6247C21.8239 10.7388 21.8542 9.27231 20.9683 8.3491Z"/>
</mask>
<path fill-rule="evenodd" clip-rule="evenodd" d="M20.9683 8.3491C20.0825 7.42589 18.6159 7.39561 17.6927 8.28145L14.7361 11.1184L11.7795 8.28145C10.8563 7.39561 9.38978 7.42589 8.50393 8.3491C7.61808 9.27231 7.64836 10.7388 8.57157 11.6247L11.39 14.3291L8.43269 17.1668C7.50948 18.0526 7.47919 19.5191 8.36504 20.4424C9.25089 21.3656 10.7174 21.3959 11.6406 20.51L14.7361 17.5398L17.8316 20.51C18.7548 21.3959 20.2213 21.3656 21.1072 20.4424C21.993 19.5191 21.9627 18.0526 21.0395 17.1668L18.0822 14.3291L20.9007 11.6247C21.8239 10.7388 21.8542 9.27231 20.9683 8.3491Z" fill="white"/>
<path d="M17.6927 8.28145L18.3851 9.00301L18.3851 9.00301L17.6927 8.28145ZM20.9683 8.3491L20.2467 9.04146V9.04146L20.9683 8.3491ZM14.7361 11.1184L14.0438 11.84L14.7361 12.5043L15.4285 11.84L14.7361 11.1184ZM11.7795 8.28145L11.0872 9.00301L11.7795 8.28145ZM8.50393 8.3491L9.22548 9.04146L8.50393 8.3491ZM8.57157 11.6247L7.87921 12.3462L8.57157 11.6247ZM11.39 14.3291L12.0824 15.0507L12.8344 14.3291L12.0824 13.6075L11.39 14.3291ZM8.43269 17.1668L9.12504 17.8883H9.12504L8.43269 17.1668ZM8.36504 20.4424L7.64349 21.1347H7.64349L8.36504 20.4424ZM11.6406 20.51L10.9483 19.7884H10.9483L11.6406 20.51ZM14.7361 17.5398L15.4285 16.8182L14.7361 16.1539L14.0438 16.8182L14.7361 17.5398ZM17.8316 20.51L18.524 19.7884L18.524 19.7884L17.8316 20.51ZM21.1072 20.4424L21.8287 21.1347V21.1347L21.1072 20.4424ZM21.0395 17.1668L20.3472 17.8883V17.8883L21.0395 17.1668ZM18.0822 14.3291L17.3898 13.6075L16.6379 14.3291L17.3898 15.0507L18.0822 14.3291ZM20.9007 11.6247L21.593 12.3462H21.593L20.9007 11.6247ZM18.3851 9.00301C18.9098 8.49954 19.7433 8.51675 20.2467 9.04146L21.6899 7.65674C20.4216 6.33503 18.3221 6.29167 17.0004 7.5599L18.3851 9.00301ZM15.4285 11.84L18.3851 9.00301L17.0004 7.5599L14.0438 10.3969L15.4285 11.84ZM15.4285 10.3969L12.4719 7.5599L11.0872 9.00301L14.0438 11.84L15.4285 10.3969ZM12.4719 7.5599C11.1502 6.29167 9.0506 6.33503 7.78237 7.65674L9.22548 9.04146C9.72895 8.51675 10.5625 8.49954 11.0872 9.00301L12.4719 7.5599ZM7.78237 7.65674C6.51414 8.97845 6.5575 11.078 7.87921 12.3462L9.26393 10.9031C8.73922 10.3997 8.72201 9.56616 9.22548 9.04146L7.78237 7.65674ZM7.87921 12.3462L10.6977 15.0507L12.0824 13.6075L9.26393 10.9031L7.87921 12.3462ZM9.12504 17.8883L12.0824 15.0507L10.6977 13.6075L7.74033 16.4452L9.12504 17.8883ZM9.0866 19.75C8.58313 19.2253 8.60034 18.3918 9.12504 17.8883L7.74033 16.4452C6.41862 17.7134 6.37526 19.813 7.64349 21.1347L9.0866 19.75ZM10.9483 19.7884C10.4236 20.2919 9.59007 20.2747 9.0866 19.75L7.64349 21.1347C8.91171 22.4564 11.0113 22.4998 12.333 21.2316L10.9483 19.7884ZM14.0438 16.8182L10.9483 19.7884L12.333 21.2316L15.4285 18.2613L14.0438 16.8182ZM14.0438 18.2613L17.1392 21.2316L18.524 19.7884L15.4285 16.8182L14.0438 18.2613ZM17.1392 21.2316C18.461 22.4998 20.5605 22.4564 21.8287 21.1347L20.3856 19.75C19.8822 20.2747 19.0487 20.2919 18.524 19.7884L17.1392 21.2316ZM21.8287 21.1347C23.097 19.813 23.0536 17.7134 21.7319 16.4452L20.3472 17.8883C20.8719 18.3918 20.8891 19.2253 20.3856 19.75L21.8287 21.1347ZM21.7319 16.4452L18.7746 13.6075L17.3898 15.0507L20.3472 17.8883L21.7319 16.4452ZM20.2083 10.9031L17.3898 13.6075L18.7746 15.0507L21.593 12.3462L20.2083 10.9031ZM20.2467 9.04146C20.7502 9.56616 20.733 10.3997 20.2083 10.9031L21.593 12.3462C22.9147 11.078 22.9581 8.97845 21.6899 7.65674L20.2467 9.04146Z" fill="#E90038" mask="url(#path-3-inside-1_81_3441)"/>
<defs>
<filter id="filter0_d_81_3441" x="0.719971" y="0" width="28" height="31" filterUnits="userSpaceOnUse" color-interpolation-filters="sRGB">
<feFlood flood-opacity="0" result="BackgroundImageFix"/>
<feColorMatrix in="SourceAlpha" type="matrix" values="0 0 0 0 0 0 0 0 0 0 0 0 0 0 0 0 0 0 127 0" result="hardAlpha"/>
<feOffset dy="3"/>
<feComposite in2="hardAlpha" operator="out"/>
<feColorMatrix type="matrix" values="0 0 0 0 1 0 0 0 0 0.15 0 0 0 0 0.352162 0 0 0 1 0"/>
<feBlend mode="normal" in2="BackgroundImageFix" result="effect1_dropShadow_81_3441"/>
<feBlend mode="normal" in="SourceGraphic" in2="effect1_dropShadow_81_3441" result="shape"/>
</filter>
</defs>
</svg>
