<svg width="36" height="39" viewBox="0 0 36 39" fill="none" xmlns="http://www.w3.org/2000/svg">
<g filter="url(#filter0_d_81_3430)">
<circle cx="18" cy="18" r="18" fill="#FF4672"/>
<circle cx="18" cy="18" r="16.5" stroke="white" stroke-width="3"/>
</g>
<mask id="path-3-inside-1_81_3430" fill="white">
<path fill-rule="evenodd" clip-rule="evenodd" d="M26.0336 10.7345C24.8946 9.54754 23.0091 9.5086 21.8221 10.6476L18.0208 14.295L14.2195 10.6476C13.0325 9.5086 11.147 9.54754 10.0081 10.7345C8.86911 11.9215 8.90805 13.807 10.095 14.946L13.7187 18.423L9.91635 22.0715C8.72937 23.2105 8.69043 25.096 9.82938 26.283C10.9683 27.47 12.8539 27.5089 14.0408 26.37L18.0208 22.5511L22.0008 26.37C23.1878 27.5089 25.0733 27.47 26.2122 26.283C27.3512 25.096 27.3123 23.2105 26.1253 22.0715L22.3229 18.423L25.9466 14.946C27.1336 13.807 27.1725 11.9215 26.0336 10.7345Z"/>
</mask>
<path fill-rule="evenodd" clip-rule="evenodd" d="M26.0336 10.7345C24.8946 9.54754 23.0091 9.5086 21.8221 10.6476L18.0208 14.295L14.2195 10.6476C13.0325 9.5086 11.147 9.54754 10.0081 10.7345C8.86911 11.9215 8.90805 13.807 10.095 14.946L13.7187 18.423L9.91635 22.0715C8.72937 23.2105 8.69043 25.096 9.82938 26.283C10.9683 27.47 12.8539 27.5089 14.0408 26.37L18.0208 22.5511L22.0008 26.37C23.1878 27.5089 25.0733 27.47 26.2122 26.283C27.3512 25.096 27.3123 23.2105 26.1253 22.0715L22.3229 18.423L25.9466 14.946C27.1336 13.807 27.1725 11.9215 26.0336 10.7345Z" fill="white"/>
<path d="M21.8221 10.6476L22.5145 11.3691L21.8221 10.6476ZM26.0336 10.7345L25.312 11.4269V11.4269L26.0336 10.7345ZM18.0208 14.295L17.3285 15.0166L18.0208 15.6809L18.7132 15.0166L18.0208 14.295ZM14.2195 10.6476L14.9119 9.926L14.2195 10.6476ZM10.0081 10.7345L10.7296 11.4269L10.7296 11.4269L10.0081 10.7345ZM10.095 14.946L9.40267 15.6676H9.40267L10.095 14.946ZM13.7187 18.423L14.4111 19.1446L15.163 18.423L14.4111 17.7015L13.7187 18.423ZM9.91635 22.0715L10.6087 22.7931L9.91635 22.0715ZM9.82938 26.283L10.5509 25.5906L10.5509 25.5906L9.82938 26.283ZM14.0408 26.37L14.7332 27.0915L14.0408 26.37ZM18.0208 22.5511L18.7132 21.8295L18.0208 21.1652L17.3285 21.8295L18.0208 22.5511ZM22.0008 26.37L21.3084 27.0915L22.0008 26.37ZM26.2122 26.283L25.4907 25.5906V25.5906L26.2122 26.283ZM26.1253 22.0715L25.4329 22.7931H25.4329L26.1253 22.0715ZM22.3229 18.423L21.6306 17.7015L20.8786 18.423L21.6306 19.1446L22.3229 18.423ZM25.9466 14.946L25.2542 14.2244L25.2542 14.2244L25.9466 14.946ZM22.5145 11.3691C23.3029 10.6125 24.5554 10.6384 25.312 11.4269L26.7551 10.0422C25.2338 8.45668 22.7152 8.40467 21.1297 9.926L22.5145 11.3691ZM18.7132 15.0166L22.5145 11.3691L21.1297 9.926L17.3285 13.5735L18.7132 15.0166ZM18.7132 13.5735L14.9119 9.926L13.5272 11.3691L17.3285 15.0166L18.7132 13.5735ZM14.9119 9.926C13.3264 8.40467 10.8078 8.45668 9.2865 10.0422L10.7296 11.4269C11.4862 10.6384 12.7387 10.6125 13.5272 11.3691L14.9119 9.926ZM9.2865 10.0422C7.76518 11.6277 7.81719 14.1462 9.40267 15.6676L10.7874 14.2244C9.99891 13.4679 9.97304 12.2154 10.7296 11.4269L9.2865 10.0422ZM9.40267 15.6676L13.0263 19.1446L14.4111 17.7015L10.7874 14.2244L9.40267 15.6676ZM10.6087 22.7931L14.4111 19.1446L13.0263 17.7015L9.22399 21.35L10.6087 22.7931ZM10.5509 25.5906C9.79436 24.8022 9.82023 23.5497 10.6087 22.7931L9.22399 21.35C7.63851 22.8713 7.5865 25.3899 9.10782 26.9754L10.5509 25.5906ZM13.3485 25.6484C12.56 26.405 11.3075 26.3791 10.5509 25.5906L9.10782 26.9754C10.6291 28.5608 13.1477 28.6129 14.7332 27.0915L13.3485 25.6484ZM17.3285 21.8295L13.3485 25.6484L14.7332 27.0915L18.7132 23.2726L17.3285 21.8295ZM17.3285 23.2726L21.3084 27.0915L22.6931 25.6484L18.7132 21.8295L17.3285 23.2726ZM21.3084 27.0915C22.8939 28.6129 25.4125 28.5608 26.9338 26.9754L25.4907 25.5906C24.7341 26.3791 23.4816 26.405 22.6931 25.6484L21.3084 27.0915ZM26.9338 26.9754C28.4551 25.3899 28.4031 22.8713 26.8176 21.35L25.4329 22.7931C26.2214 23.5497 26.2473 24.8022 25.4907 25.5906L26.9338 26.9754ZM26.8176 21.35L23.0153 17.7015L21.6306 19.1446L25.4329 22.7931L26.8176 21.35ZM25.2542 14.2244L21.6306 17.7015L23.0153 19.1446L26.639 15.6676L25.2542 14.2244ZM25.312 11.4269C26.0686 12.2154 26.0427 13.4679 25.2542 14.2244L26.639 15.6676C28.2244 14.1462 28.2765 11.6277 26.7551 10.0422L25.312 11.4269Z" fill="#E90038" mask="url(#path-3-inside-1_81_3430)"/>
<defs>
<filter id="filter0_d_81_3430" x="0" y="0" width="36" height="39" filterUnits="userSpaceOnUse" color-interpolation-filters="sRGB">
<feFlood flood-opacity="0" result="BackgroundImageFix"/>
<feColorMatrix in="SourceAlpha" type="matrix" values="0 0 0 0 0 0 0 0 0 0 0 0 0 0 0 0 0 0 127 0" result="hardAlpha"/>
<feOffset dy="3"/>
<feComposite in2="hardAlpha" operator="out"/>
<feColorMatrix type="matrix" values="0 0 0 0 1 0 0 0 0 0.15 0 0 0 0 0.352162 0 0 0 1 0"/>
<feBlend mode="normal" in2="BackgroundImageFix" result="effect1_dropShadow_81_3430"/>
<feBlend mode="normal" in="SourceGraphic" in2="effect1_dropShadow_81_3430" result="shape"/>
</filter>
</defs>
</svg>
