<svg width="31" height="30" viewBox="0 0 31 30" fill="none" xmlns="http://www.w3.org/2000/svg">
<path d="M15.97 3.75C12.92 3.75 9.99491 4.9616 7.83824 7.11827C5.68157 9.27494 4.46997 12.2 4.46997 15.25C4.46997 18.3 5.68157 21.2251 7.83824 23.3817C9.99491 25.5384 12.92 26.75 15.97 26.75C17.0305 26.75 17.8866 25.8939 17.8866 24.8333C17.8866 24.335 17.695 23.8878 17.3883 23.5428C17.0944 23.2106 16.9027 22.7633 16.9027 22.2778C16.9027 21.2172 17.7589 20.3611 18.8194 20.3611H21.0811C24.6077 20.3611 27.47 17.4989 27.47 13.9722C27.47 8.32444 22.3205 3.75 15.97 3.75ZM8.94219 15.25C7.88164 15.25 7.02553 14.3939 7.02553 13.3333C7.02553 12.2728 7.88164 11.4167 8.94219 11.4167C10.0027 11.4167 10.8589 12.2728 10.8589 13.3333C10.8589 14.3939 10.0027 15.25 8.94219 15.25ZM12.7755 10.1389C11.715 10.1389 10.8589 9.28278 10.8589 8.22222C10.8589 7.16167 11.715 6.30556 12.7755 6.30556C13.8361 6.30556 14.6922 7.16167 14.6922 8.22222C14.6922 9.28278 13.8361 10.1389 12.7755 10.1389ZM19.1644 10.1389C18.1039 10.1389 17.2477 9.28278 17.2477 8.22222C17.2477 7.16167 18.1039 6.30556 19.1644 6.30556C20.225 6.30556 21.0811 7.16167 21.0811 8.22222C21.0811 9.28278 20.225 10.1389 19.1644 10.1389ZM22.9977 15.25C21.9372 15.25 21.0811 14.3939 21.0811 13.3333C21.0811 12.2728 21.9372 11.4167 22.9977 11.4167C24.0583 11.4167 24.9144 12.2728 24.9144 13.3333C24.9144 14.3939 24.0583 15.25 22.9977 15.25Z" fill="white"/>
</svg>
