<svg width="25" height="24" viewBox="0 0 25 24" fill="none" xmlns="http://www.w3.org/2000/svg">
<path d="M24.22 12C24.22 18.3513 19.0712 23.5 12.72 23.5C6.3687 23.5 1.21997 18.3513 1.21997 12C1.21997 5.64873 6.3687 0.5 12.72 0.5C19.0712 0.5 24.22 5.64873 24.22 12Z" stroke="white"/>
<path fill-rule="evenodd" clip-rule="evenodd" d="M13.1218 8.21613C14.3671 8.21613 15.3766 7.2066 15.3766 5.96129C15.3766 4.71598 14.3671 3.70645 13.1218 3.70645C11.8765 3.70645 10.8669 4.71598 10.8669 5.96129C10.8669 7.2066 11.8765 8.21613 13.1218 8.21613ZM11.8669 9.34355C11.3147 9.34355 10.8669 9.79126 10.8669 10.3435V18.4903C10.8669 19.0426 11.3147 19.4903 11.8669 19.4903H14.3766C14.9289 19.4903 15.3766 19.0426 15.3766 18.4903V10.3435C15.3766 9.79126 14.9289 9.34355 14.3766 9.34355H11.8669Z" fill="white"/>
</svg>
