<svg width="31" height="30" viewBox="0 0 31 30" fill="none" xmlns="http://www.w3.org/2000/svg">
<g clip-path="url(#clip0_81_3435)">
<path d="M9.88668 13.75L9.05334 16.3333H10.72L9.88668 13.75Z" fill="white"/>
<path d="M25.2172 2.5H12.314V6.53226H15.5398V8.14516H5.05595C3.68498 8.14516 2.6366 9.19355 2.6366 10.5645V19.4355C2.6366 20.8064 3.68498 21.8548 5.05595 21.8548H5.8624V25.9677L10.943 21.8548H16.3463V16.2097H25.2172C26.5882 16.2097 27.6366 15.1613 27.6366 13.7903V4.91935C27.6366 3.54839 26.5882 2.5 25.2172 2.5ZM11.3463 18.5484L10.943 17.2581H8.44305L7.95918 18.5484H6.02369L8.68498 11.371H10.6205L13.2818 18.5484H11.3463ZM23.6043 12.1774V13.7903C22.556 13.7903 21.4269 13.4677 20.4592 12.9839C19.4914 13.4677 18.3624 13.7097 17.2334 13.7903L17.1527 12.1774C17.7172 12.1774 18.2818 12.0968 18.8463 11.9355C18.1205 11.2097 17.6366 10.3226 17.3947 9.35484H19.0882C19.3301 10.0806 19.814 10.6452 20.3785 11.129C21.2656 10.4032 21.8301 9.35484 21.9108 8.14516H17.0721V6.53226H19.4914V4.91935H21.1043V6.53226H23.7656L23.8463 7.33871C23.9269 9.03226 23.2818 10.7258 22.0721 11.9355C22.6366 12.0968 23.1205 12.1774 23.6043 12.1774Z" fill="white"/>
</g>
<defs>
<clipPath id="clip0_81_3435">
<rect width="30" height="30" fill="white" transform="translate(0.719971)"/>
</clipPath>
</defs>
</svg>
