<svg width="25" height="24" viewBox="0 0 25 24" fill="none" xmlns="http://www.w3.org/2000/svg">
<g clip-path="url(#clip0_81_3434)">
<path d="M23.1381 0.282871C23.5019 0.552374 23.7175 0.983578 23.7175 1.43724V16.5294C23.7175 18.5147 21.7861 20.1228 19.4055 20.1228C17.0249 20.1228 15.0935 18.5147 15.0935 16.5294C15.0935 14.5441 17.0249 12.936 19.4055 12.936C19.9086 12.936 20.3937 13.0079 20.8428 13.1426V6.60271L9.34406 10.0523V19.4041C9.34406 21.3894 7.41262 22.9975 5.03202 22.9975C2.65141 22.9975 0.719971 21.3894 0.719971 19.4041C0.719971 17.4188 2.65141 15.8107 5.03202 15.8107C5.53509 15.8107 6.02019 15.8826 6.46936 16.0173V5.74929C6.46936 5.11595 6.88709 4.55449 7.49347 4.37033L21.867 0.058285C22.3027 -0.0719747 22.7743 0.0088762 23.1381 0.282871Z" fill="white"/>
</g>
<defs>
<clipPath id="clip0_81_3434">
<rect width="24" height="24" fill="white" transform="translate(0.719971)"/>
</clipPath>
</defs>
</svg>
