<svg width="256" height="203" viewBox="0 0 256 203" fill="none" xmlns="http://www.w3.org/2000/svg">
<g filter="url(#filter0_d_79_6107)">
<path d="M37.2517 63.5779C35.7319 67.0607 34.0222 70.1003 32.1224 72.6966C30.286 75.2296 28.323 77.3826 26.2333 79.1557C24.2069 80.8654 22.1489 82.1319 20.0592 82.9551C17.9695 83.7784 15.9431 84.19 13.98 84.19C12.017 84.19 10.2122 83.7467 8.56579 82.8602C6.98268 81.9736 5.58955 80.6438 4.38639 78.8707C3.18323 77.0976 2.2017 74.913 1.44181 72.3167C0.745239 69.7204 0.396955 66.6808 0.396955 63.198C0.396955 57.2455 1.22017 51.388 2.8666 45.6255C4.51304 39.7996 6.82437 34.5754 9.80062 29.9527C12.7769 25.33 16.2914 21.6255 20.3441 18.8393C24.4602 15.9897 28.9879 14.5649 33.9272 14.5649C35.447 14.5649 36.9034 14.8815 38.2966 15.5147C39.6897 16.148 40.8929 17.0345 41.9061 18.1744C42.9192 19.3142 43.7108 20.7073 44.2807 22.3538C44.914 24.0002 45.2306 25.8366 45.2306 27.863C45.2306 28.2429 45.2306 28.6545 45.2306 29.0978C45.2306 29.4778 45.1989 29.8894 45.1356 30.3326L32.6924 33.6572C31.9325 32.0741 31.0459 31.2825 30.0327 31.2825C29.0196 31.2825 27.943 31.8841 26.8032 33.0872C25.7267 34.2271 24.6502 35.7469 23.5737 37.6466C22.4971 39.483 21.4523 41.5727 20.4391 43.9157C19.4259 46.1954 18.5394 48.5067 17.7795 50.8497C17.0196 53.1927 16.3863 55.4407 15.8798 57.5938C15.4365 59.6835 15.2148 61.3932 15.2148 62.723C15.2148 64.7494 15.4681 66.1742 15.9747 66.9974C16.5447 67.8206 17.2729 68.2322 18.1594 68.2322C18.856 68.2322 19.6476 67.9789 20.5341 67.4724C21.4206 66.9024 22.2438 66.2059 23.0037 65.3826C23.7636 64.4961 24.4602 63.5146 25.0934 62.4381C25.7267 61.3616 26.17 60.285 26.4233 59.2085L37.2517 63.5779ZM133.093 80.9604C131.13 80.9604 129.04 81.0238 126.824 81.1504C124.671 81.2771 122.486 81.467 120.27 81.7203C118.054 81.9736 115.869 82.3219 113.716 82.7652C111.626 83.1451 109.726 83.6201 108.017 84.19C108.397 81.3404 108.84 78.1742 109.346 74.6913C109.853 71.2085 110.423 67.599 111.056 63.8629C111.753 60.1267 112.418 56.3589 113.051 52.5595C113.747 48.76 114.444 45.1189 115.141 41.636C116.724 33.3405 118.402 24.8867 120.175 16.2746L136.798 14.0899C135.088 21.4356 133.441 28.5912 131.858 35.5569C131.162 38.5331 130.465 41.636 129.769 44.8656C129.072 48.0318 128.407 51.1347 127.774 54.1742C127.141 57.2138 126.571 60.1584 126.064 63.008C125.557 65.8576 125.146 68.3906 124.829 70.6069C126.412 70.4803 128.09 70.4169 129.864 70.4169C131.7 70.3536 133.315 70.3219 134.708 70.3219C134.771 71.5251 134.866 72.7283 134.993 73.9314C135.119 75.0713 135.246 76.1161 135.373 77.066C135.563 78.0159 135.689 78.8707 135.753 79.6306C135.879 80.3272 135.974 80.8021 136.038 81.0554C135.531 81.0554 135.024 81.0554 134.518 81.0554C134.075 80.9921 133.6 80.9604 133.093 80.9604ZM206.774 84.095C208.483 75.6729 210.13 67.4407 211.713 59.3985C212.283 55.979 212.916 52.4328 213.613 48.76C214.309 45.0239 214.942 41.3511 215.512 37.7416C216.146 34.0688 216.716 30.5543 217.222 27.1981C217.792 23.7786 218.235 20.6757 218.552 17.8894C222.161 16.7496 226.056 15.9263 230.235 15.4197C234.415 14.8498 238.562 14.5649 242.679 14.5649C245.148 14.5649 247.175 14.8498 248.758 15.4197C250.404 15.9897 251.671 16.8129 252.557 17.8894C253.507 18.9026 254.172 20.1058 254.552 21.4989C254.932 22.892 255.122 24.4435 255.122 26.1532C255.122 28.6862 254.679 31.1875 253.792 33.6572C252.905 36.0635 251.702 38.3748 250.182 40.5912C248.726 42.7442 247.016 44.7389 245.053 46.5753C243.153 48.3484 241.095 49.8049 238.879 50.9447C240.019 53.4777 241.222 56.2639 242.489 59.3035C243.818 62.2798 245.053 65.1294 246.193 67.8523C247.46 71.0185 248.758 74.1847 250.087 77.3509L235.365 82.4802C234.098 78.1108 232.958 73.9948 231.945 70.132C231.502 68.5489 231.059 66.9341 230.615 65.2877C230.172 63.5779 229.76 61.9948 229.38 60.5383C229 59.0186 228.684 57.6887 228.431 56.5489C228.177 55.4091 228.019 54.5225 227.956 53.8893L226.721 54.2692C226.341 56.2956 225.866 58.7653 225.296 61.6782C224.789 64.5911 224.314 67.409 223.871 70.132C223.301 73.3615 222.731 76.686 222.161 80.1056L206.774 84.095ZM229.095 42.8708C230.299 42.7442 231.755 42.2376 233.465 41.3511C235.238 40.4645 236.916 39.4197 238.499 38.2165C240.082 36.95 241.444 35.6519 242.584 34.3221C243.723 32.9923 244.293 31.8208 244.293 30.8076C244.293 30.111 244.072 29.5727 243.628 29.1928C243.185 28.7495 242.552 28.4329 241.729 28.2429C240.969 27.9896 240.114 27.8313 239.164 27.768C238.214 27.7047 237.233 27.673 236.219 27.673C235.523 27.673 234.795 27.7047 234.035 27.768C233.338 27.768 232.705 27.768 232.135 27.768L229.095 42.8708Z" fill="white"/>
</g>
<path d="M66.3891 71.5447C55.8114 71.5447 47.205 62.7301 47.205 51.786C47.205 68.3259 60.2348 81.7459 76.2938 81.7459C92.3527 81.7459 105.383 68.3259 105.383 51.786H85.5252C85.5733 62.7301 77.015 71.5447 66.3891 71.5447Z" fill="#67EB00"/>
<path d="M47.2522 51.8354C47.2522 62.7299 55.8106 71.5941 66.4364 71.5941C77.0142 71.5941 85.6206 62.7795 85.6206 51.8354H76.341H47.2522Z" fill="#FFDB0A"/>
<path d="M86.2456 32.0769C96.8234 32.0769 105.43 40.8915 105.43 51.8356C105.43 35.2957 92.4 21.8757 76.341 21.8757C60.2821 21.8757 47.2522 35.2957 47.2522 51.8356H67.1095C67.1095 40.9411 75.6679 32.0769 86.2456 32.0769Z" fill="#FFDB0A"/>
<path d="M105.431 51.8355C105.431 40.941 96.8725 32.0768 86.2467 32.0768C75.6689 32.0768 67.0625 40.8915 67.0625 51.8355H76.3421H105.431Z" fill="#67EB00"/>
<path d="M47.2522 51.8354C47.2522 62.7299 55.8106 71.5941 66.4364 71.5941C77.0142 71.5941 85.6206 62.7795 85.6206 51.8354H76.341H47.2522Z" fill="url(#paint0_linear_79_6107)"/>
<path d="M47.2522 51.8354C47.2522 62.7299 55.8106 71.5941 66.4364 71.5941C77.0142 71.5941 85.6206 62.7795 85.6206 51.8354H76.341H47.2522Z" fill="url(#paint1_linear_79_6107)"/>
<path d="M105.431 51.8355C105.431 40.941 96.8725 32.0768 86.2467 32.0768C75.6689 32.0768 67.0625 40.8915 67.0625 51.8355H76.3421H105.431Z" fill="url(#paint2_linear_79_6107)"/>
<path d="M67.1108 51.8354C67.1108 57.0846 71.2458 61.3433 76.3423 61.3433C81.4389 61.3433 85.5738 57.0846 85.5738 51.8354H81.1023H67.1108Z" fill="url(#paint3_linear_79_6107)"/>
<path d="M85.4777 51.8356C85.4777 46.5864 81.3427 42.3772 76.2943 42.3772C71.1977 42.3772 67.1108 46.6359 67.1108 51.8356H71.5343H85.4777Z" fill="url(#paint4_linear_79_6107)"/>
<path d="M184.112 32.0768C194.689 32.0768 203.296 40.8915 203.296 51.8355C203.296 35.2957 190.266 21.8756 174.207 21.8756C158.148 21.8756 145.118 35.2957 145.118 51.8355H164.975C164.927 40.8915 173.486 32.0768 184.112 32.0768Z" fill="#4CDAFE"/>
<path d="M203.248 51.7862C203.248 40.8917 194.69 32.0275 184.064 32.0275C173.486 32.0275 164.88 40.8421 164.88 51.7862H174.159L203.248 51.7862Z" fill="#FC8AFF"/>
<path d="M164.255 71.5447C153.677 71.5447 145.07 62.7301 145.07 51.786C145.07 68.3259 158.1 81.7459 174.159 81.7459C190.218 81.7459 203.248 68.3259 203.248 51.786H183.391C183.391 62.6805 174.832 71.5447 164.255 71.5447Z" fill="#FC8AFF"/>
<path d="M145.07 51.786C145.07 62.6805 153.628 71.5446 164.254 71.5446C174.832 71.5446 183.438 62.73 183.438 51.786H174.159H145.07Z" fill="#4CDAFE"/>
<path d="M203.248 51.7862C203.248 40.8917 194.69 32.0275 184.064 32.0275C173.486 32.0275 164.88 40.8421 164.88 51.7862H174.159L203.248 51.7862Z" fill="url(#paint5_linear_79_6107)"/>
<path d="M203.248 51.7862C203.248 40.8917 194.69 32.0275 184.064 32.0275C173.486 32.0275 164.88 40.8421 164.88 51.7862H174.159L203.248 51.7862Z" fill="url(#paint6_linear_79_6107)"/>
<path d="M145.07 51.786C145.07 62.6805 153.628 71.5446 164.254 71.5446C174.832 71.5446 183.438 62.73 183.438 51.786H174.159H145.07Z" fill="url(#paint7_linear_79_6107)"/>
<path d="M183.39 51.7862C183.39 46.537 179.255 42.2783 174.159 42.2783C169.062 42.2783 164.927 46.537 164.927 51.7862H169.399H183.39Z" fill="url(#paint8_linear_79_6107)"/>
<path d="M165.023 51.786C165.023 57.0352 169.158 61.2444 174.207 61.2444C179.303 61.2444 183.39 56.9856 183.39 51.786H178.967H165.023Z" fill="url(#paint9_linear_79_6107)"/>
<g filter="url(#filter1_d_79_6107)">
<path d="M62.6072 164.897C61.0875 168.38 59.3777 171.419 57.478 174.016C55.6416 176.548 53.6785 178.702 51.5888 180.475C49.5624 182.184 47.5044 183.451 45.4147 184.274C43.325 185.097 41.2986 185.509 39.3355 185.509C37.3725 185.509 35.5677 185.066 33.9213 184.179C32.3382 183.293 30.9451 181.963 29.7419 180.19C28.5387 178.417 27.5572 176.232 26.7973 173.636C26.1008 171.039 25.7525 168 25.7525 164.517C25.7525 158.564 26.5757 152.707 28.2221 146.944C29.8686 141.119 32.1799 135.894 35.1561 131.272C38.1324 126.649 41.6469 122.944 45.6996 120.158C49.8157 117.309 54.3434 115.884 59.2827 115.884C60.8025 115.884 62.259 116.2 63.6521 116.834C65.0452 117.467 66.2484 118.353 67.2616 119.493C68.2748 120.633 69.0663 122.026 69.6362 123.673C70.2695 125.319 70.5861 127.156 70.5861 129.182C70.5861 129.562 70.5861 129.973 70.5861 130.417C70.5861 130.797 70.5544 131.208 70.4911 131.652L58.0479 134.976C57.288 133.393 56.4015 132.601 55.3883 132.601C54.3751 132.601 53.2986 133.203 52.1587 134.406C51.0822 135.546 50.0057 137.066 48.9292 138.965C47.8527 140.802 46.8078 142.892 45.7946 145.235C44.7814 147.514 43.8949 149.826 43.135 152.169C42.3751 154.512 41.7419 156.76 41.2353 158.913C40.792 161.002 40.5704 162.712 40.5704 164.042C40.5704 166.068 40.8237 167.493 41.3303 168.316C41.9002 169.14 42.6284 169.551 43.515 169.551C44.2115 169.551 45.0031 169.298 45.8896 168.791C46.7762 168.221 47.5994 167.525 48.3593 166.702C49.1192 165.815 49.8157 164.833 50.449 163.757C51.0822 162.68 51.5255 161.604 51.7788 160.527L62.6072 164.897ZM91.3941 182.279C89.431 182.279 87.3413 182.343 85.125 182.469C82.9719 182.596 80.7873 182.786 78.5709 183.039C76.3545 183.293 74.1699 183.641 72.0168 184.084C69.9271 184.464 68.0274 184.939 66.3176 185.509C66.6976 182.659 67.1409 179.493 67.6475 176.01C68.154 172.527 68.724 168.918 69.3572 165.182C70.0538 161.446 70.7187 157.678 71.3519 153.878C72.0485 150.079 72.7451 146.438 73.4416 142.955C75.0247 134.659 76.7028 126.206 78.4759 117.594L95.0985 115.409C93.3888 122.754 91.7424 129.91 90.1593 136.876C89.4627 139.852 88.7661 142.955 88.0695 146.184C87.373 149.351 86.7081 152.454 86.0748 155.493C85.4416 158.533 84.8717 161.477 84.3651 164.327C83.8585 167.176 83.4469 169.709 83.1303 171.926C84.7134 171.799 86.3915 171.736 88.1645 171.736C90.0009 171.673 91.6157 171.641 93.0088 171.641C93.0722 172.844 93.1672 174.047 93.2938 175.25C93.4205 176.39 93.5471 177.435 93.6738 178.385C93.8637 179.335 93.9904 180.19 94.0537 180.95C94.1803 181.646 94.2753 182.121 94.3387 182.374C93.8321 182.374 93.3255 182.374 92.8189 182.374C92.3756 182.311 91.9007 182.279 91.3941 182.279ZM132.595 183.419C131.012 183.672 129.271 183.957 127.371 184.274C125.471 184.591 123.761 184.876 122.242 185.129C122.495 183.039 122.748 180.981 123.002 178.955C123.192 177.182 123.35 175.409 123.477 173.636C123.666 171.862 123.825 170.343 123.951 169.076H115.688L111.888 182.754C110.495 182.944 108.849 183.166 106.949 183.419C105.049 183.609 103.276 183.799 101.63 183.989C99.6032 184.242 97.6085 184.496 95.6455 184.749C98.1784 176.327 100.68 168.031 103.149 159.863C104.163 156.443 105.207 152.865 106.284 149.129C107.424 145.393 108.532 141.688 109.608 138.016C110.748 134.279 111.825 130.702 112.838 127.282C113.851 123.863 114.738 120.728 115.498 117.878C119.804 117.562 124.173 117.182 128.606 116.739C133.102 116.295 137.471 115.694 141.714 114.934C141.524 116.96 141.302 119.493 141.049 122.533C140.859 125.509 140.669 128.77 140.479 132.316C140.289 135.863 140.099 139.567 139.909 143.43C139.719 147.293 139.529 151.092 139.339 154.828C139.023 163.567 138.674 172.844 138.294 182.659C136.395 182.976 134.495 183.229 132.595 183.419ZM117.967 159.578C118.221 159.578 118.664 159.578 119.297 159.578C119.994 159.514 120.69 159.483 121.387 159.483C122.147 159.419 122.843 159.388 123.477 159.388C124.11 159.324 124.553 159.261 124.806 159.198C124.806 158.818 124.838 158.184 124.901 157.298C125.028 156.348 125.123 155.303 125.186 154.163C125.313 152.96 125.44 151.662 125.566 150.269C125.693 148.876 125.82 147.514 125.946 146.184C126.199 142.955 126.516 139.472 126.896 135.736L127.466 127.472L126.041 127.567L123.856 135.736L117.967 159.578ZM184.148 161.857C184.148 165.403 183.451 168.633 182.058 171.546C180.728 174.395 178.892 176.865 176.549 178.955C174.269 181.045 171.546 182.659 168.38 183.799C165.277 184.939 161.921 185.509 158.311 185.509C155.778 185.509 153.245 184.844 150.712 183.514C148.179 182.121 145.741 179.936 143.398 176.96L150.427 163.187C150.871 164.01 151.536 164.865 152.422 165.752C153.309 166.575 154.29 167.303 155.367 167.936C156.507 168.57 157.615 169.108 158.691 169.551C159.831 169.931 160.844 170.121 161.731 170.121C162.491 170.121 163.282 169.994 164.105 169.741C164.929 169.488 165.689 169.108 166.385 168.601C167.082 168.095 167.62 167.525 168 166.892C168.443 166.195 168.665 165.403 168.665 164.517C168.665 162.997 168.158 161.604 167.145 160.337C166.195 159.008 164.992 157.773 163.536 156.633C162.079 155.43 160.496 154.227 158.786 153.024C157.076 151.82 155.493 150.554 154.037 149.224C152.644 147.894 151.441 146.406 150.427 144.76C149.414 143.113 148.908 141.277 148.908 139.25C148.908 135.958 149.889 132.886 151.852 130.037C153.815 127.187 156.253 124.749 159.166 122.723C162.142 120.633 165.372 118.987 168.855 117.784C172.338 116.58 175.631 115.979 178.733 115.979C180.443 115.979 182.058 116.2 183.578 116.644C185.098 117.024 186.396 117.689 187.472 118.638C188.612 119.525 189.499 120.665 190.132 122.058C190.828 123.451 191.177 125.192 191.177 127.282C191.177 128.169 191.082 129.055 190.892 129.942C190.765 130.828 190.638 131.778 190.512 132.791L176.739 136.781C176.865 136.274 176.96 135.768 177.024 135.261C177.15 134.754 177.214 134.248 177.214 133.741C177.214 131.842 176.865 130.48 176.169 129.657C175.536 128.77 174.681 128.327 173.604 128.327C173.098 128.327 172.464 128.517 171.704 128.897C171.008 129.277 170.28 129.783 169.52 130.417C168.823 130.987 168.222 131.683 167.715 132.506C167.208 133.33 166.955 134.216 166.955 135.166C166.955 136.686 167.367 137.952 168.19 138.965C169.076 139.979 170.153 140.929 171.419 141.815C172.686 142.702 174.047 143.62 175.504 144.57C177.024 145.456 178.417 146.628 179.683 148.084C180.95 149.541 181.995 151.377 182.818 153.593C183.704 155.746 184.148 158.501 184.148 161.857ZM187.537 185.509C189.184 176.77 190.799 168.19 192.382 159.768C192.952 156.221 193.585 152.549 194.282 148.749C194.978 144.886 195.643 141.087 196.276 137.351C196.909 133.615 197.511 130.005 198.081 126.522C198.651 122.976 199.157 119.747 199.601 116.834L214.989 115.789C213.912 120.221 212.836 124.844 211.759 129.657C210.746 134.469 209.796 139.155 208.909 143.715L218.313 142.67C219.2 138.174 219.991 133.836 220.688 129.657C221.384 125.414 222.303 121.045 223.442 116.549C224.899 116.295 226.514 116.105 228.287 115.979C230.06 115.789 231.706 115.63 233.226 115.504C234.746 115.377 236.012 115.282 237.025 115.219C238.102 115.092 238.64 115.029 238.64 115.029C237.754 117.878 236.899 121.013 236.076 124.433C235.316 127.789 234.556 131.303 233.796 134.976C233.036 138.586 232.308 142.258 231.611 145.994C230.915 149.731 230.281 153.277 229.711 156.633C228.318 164.675 227.02 172.907 225.817 181.329L210.999 183.039C211.822 179.24 212.551 175.535 213.184 171.926C213.817 168.886 214.45 165.72 215.084 162.427C215.78 159.134 216.318 156.316 216.698 153.973L207.485 154.828C207.041 157.235 206.503 160.021 205.87 163.187C205.3 166.353 204.762 169.361 204.255 172.211C203.559 175.63 202.862 179.05 202.165 182.469L187.537 185.509Z" fill="white"/>
</g>
<defs>
<filter id="filter0_d_79_6107" x="0.396973" y="14.0899" width="254.725" height="73.2663" filterUnits="userSpaceOnUse" color-interpolation-filters="sRGB">
<feFlood flood-opacity="0" result="BackgroundImageFix"/>
<feColorMatrix in="SourceAlpha" type="matrix" values="0 0 0 0 0 0 0 0 0 0 0 0 0 0 0 0 0 0 127 0" result="hardAlpha"/>
<feOffset dy="3.16622"/>
<feComposite in2="hardAlpha" operator="out"/>
<feColorMatrix type="matrix" values="0 0 0 0 0 0 0 0 0 0 0 0 0 0 0 0 0 0 0.15 0"/>
<feBlend mode="normal" in2="BackgroundImageFix" result="effect1_dropShadow_79_6107"/>
<feBlend mode="normal" in="SourceGraphic" in2="effect1_dropShadow_79_6107" result="shape"/>
</filter>
<filter id="filter1_d_79_6107" x="25.7524" y="114.934" width="212.888" height="73.7412" filterUnits="userSpaceOnUse" color-interpolation-filters="sRGB">
<feFlood flood-opacity="0" result="BackgroundImageFix"/>
<feColorMatrix in="SourceAlpha" type="matrix" values="0 0 0 0 0 0 0 0 0 0 0 0 0 0 0 0 0 0 127 0" result="hardAlpha"/>
<feOffset dy="3.16622"/>
<feComposite in2="hardAlpha" operator="out"/>
<feColorMatrix type="matrix" values="0 0 0 0 0 0 0 0 0 0 0 0 0 0 0 0 0 0 0.15 0"/>
<feBlend mode="normal" in2="BackgroundImageFix" result="effect1_dropShadow_79_6107"/>
<feBlend mode="normal" in="SourceGraphic" in2="effect1_dropShadow_79_6107" result="shape"/>
</filter>
<linearGradient id="paint0_linear_79_6107" x1="66.4103" y1="70.8742" x2="66.4103" y2="52.4259" gradientUnits="userSpaceOnUse">
<stop stop-opacity="0.25"/>
<stop offset="1" stop-opacity="0"/>
</linearGradient>
<linearGradient id="paint1_linear_79_6107" x1="66.4103" y1="70.8742" x2="66.4103" y2="52.4259" gradientUnits="userSpaceOnUse">
<stop stop-opacity="0.25"/>
<stop offset="1" stop-opacity="0"/>
</linearGradient>
<linearGradient id="paint2_linear_79_6107" x1="86.2681" y1="32.994" x2="86.2681" y2="52.6881" gradientUnits="userSpaceOnUse">
<stop stop-opacity="0.25"/>
<stop offset="1" stop-opacity="0"/>
</linearGradient>
<linearGradient id="paint3_linear_79_6107" x1="76.3556" y1="52.3363" x2="76.3557" y2="61.3933" gradientUnits="userSpaceOnUse">
<stop stop-opacity="0.25"/>
<stop offset="1" stop-opacity="0"/>
</linearGradient>
<linearGradient id="paint4_linear_79_6107" x1="76.2995" y1="51.8301" x2="76.2996" y2="42.4121" gradientUnits="userSpaceOnUse">
<stop stop-opacity="0.25"/>
<stop offset="1" stop-opacity="0"/>
</linearGradient>
<linearGradient id="paint5_linear_79_6107" x1="184.09" y1="32.7474" x2="184.09" y2="51.1957" gradientUnits="userSpaceOnUse">
<stop stop-opacity="0.25"/>
<stop offset="1" stop-opacity="0"/>
</linearGradient>
<linearGradient id="paint6_linear_79_6107" x1="184.09" y1="32.7474" x2="184.09" y2="51.1957" gradientUnits="userSpaceOnUse">
<stop stop-opacity="0.25"/>
<stop offset="1" stop-opacity="0"/>
</linearGradient>
<linearGradient id="paint7_linear_79_6107" x1="164.233" y1="70.6275" x2="164.233" y2="50.9334" gradientUnits="userSpaceOnUse">
<stop stop-opacity="0.25"/>
<stop offset="1" stop-opacity="0"/>
</linearGradient>
<linearGradient id="paint8_linear_79_6107" x1="174.145" y1="51.2853" x2="174.145" y2="42.2283" gradientUnits="userSpaceOnUse">
<stop stop-opacity="0.25"/>
<stop offset="1" stop-opacity="0"/>
</linearGradient>
<linearGradient id="paint9_linear_79_6107" x1="174.201" y1="51.7915" x2="174.201" y2="61.2095" gradientUnits="userSpaceOnUse">
<stop stop-opacity="0.25"/>
<stop offset="1" stop-opacity="0"/>
</linearGradient>
</defs>
</svg>
