<svg width="51" height="51" viewBox="0 0 51 51" fill="none" xmlns="http://www.w3.org/2000/svg">
<path d="M25.5 1.875C12.4523 1.875 1.875 12.4523 1.875 25.5C1.875 38.5477 12.4523 49.125 25.5 49.125C38.5477 49.125 49.125 38.5477 49.125 25.5C49.125 12.4523 38.5477 1.875 25.5 1.875Z" fill="#F559D3" stroke="#D0D0D0" stroke-width="2.25"/>
<path d="M25.5002 1.875C13.0738 1.875 3.00024 11.9486 3.00024 24.375C3.00024 36.8014 13.0738 46.875 25.5002 46.875C37.9267 46.875 48.0002 36.8014 48.0002 24.375C48.0002 11.9486 37.9267 1.875 25.5002 1.875Z" fill="#F559D3" stroke="white" stroke-width="2.25"/>
<path d="M37.6667 27.9587L32.5147 22.7787C32.1383 22.4036 31.6814 22.1192 31.1787 21.947C30.676 21.7748 30.1407 21.7193 29.6134 21.7848C29.0861 21.8502 28.5806 22.0348 28.1352 22.3247C27.6899 22.6145 27.3164 23.002 27.043 23.4577L20.2507 34.3333H17.8334C16.9051 34.3333 16.0149 33.9646 15.3585 33.3082C14.7021 32.6518 14.3334 31.7616 14.3334 30.8333V19.1667C14.3334 18.2384 14.7021 17.3482 15.3585 16.6918C16.0149 16.0354 16.9051 15.6667 17.8334 15.6667H34.1667C35.095 15.6667 35.9852 16.0354 36.6416 16.6918C37.298 17.3482 37.6667 18.2384 37.6667 19.1667V27.9587ZM37.6539 31.1367C37.578 32.0092 37.1777 32.8215 36.5321 33.4133C35.8865 34.0051 35.0425 34.3334 34.1667 34.3333H23.2467L29.0439 24.6582C29.1349 24.5063 29.2593 24.3771 29.4077 24.2804C29.556 24.1837 29.7245 24.1221 29.9002 24.1001C30.0759 24.0782 30.2543 24.0966 30.4219 24.1538C30.5895 24.2111 30.7418 24.3058 30.8674 24.4307L37.6539 31.1367ZM21.3334 26.1667C22.2616 26.1667 23.1519 25.7979 23.8082 25.1415C24.4646 24.4852 24.8334 23.5949 24.8334 22.6667C24.8334 21.7384 24.4646 20.8482 23.8082 20.1918C23.1519 19.5354 22.2616 19.1667 21.3334 19.1667C20.4051 19.1667 19.5149 19.5354 18.8585 20.1918C18.2021 20.8482 17.8334 21.7384 17.8334 22.6667C17.8334 23.5949 18.2021 24.4852 18.8585 25.1415C19.5149 25.7979 20.4051 26.1667 21.3334 26.1667Z" fill="white"/>
</svg>
