<svg width="29" height="31" viewBox="0 0 29 31" fill="none" xmlns="http://www.w3.org/2000/svg">
<g filter="url(#filter0_d_81_3439)">
<circle cx="14.72" cy="14" r="14" fill="#B169FA"/>
<circle cx="14.72" cy="14" r="12.5" stroke="white" stroke-width="3"/>
</g>
<mask id="path-3-outside-1_81_3439" maskUnits="userSpaceOnUse" x="6.08313" y="5.36362" width="17" height="17" fill="black">
<rect fill="white" x="6.08313" y="5.36362" width="17" height="17"/>
<path d="M20.1663 14.1233L20.1714 13.3164L21.5571 12.0223C21.7329 11.8599 21.7691 11.6061 21.6502 11.4031L20.1249 8.75395C20.006 8.55095 19.7682 8.45453 19.5355 8.51543L17.6949 9.01785L16.9193 8.57125L16.454 6.74932C16.3971 6.52602 16.1903 6.36362 15.9524 6.36362H12.8502C12.6124 6.36362 12.4055 6.52602 12.3487 6.74932L11.8833 8.57125L11.1078 9.01785L9.2671 8.51543C9.03443 8.45453 8.7966 8.55095 8.67768 8.75395L7.15241 11.4031C7.03349 11.6061 7.06968 11.8599 7.24548 12.0223L8.63114 13.3164L8.63631 14.1233L7.26616 15.4327C7.09553 15.5951 7.05934 15.8488 7.17826 16.0518L8.74489 18.6807C8.86381 18.8837 9.10682 18.9801 9.33432 18.9141L11.1698 18.3914L11.8833 18.7923L12.3487 20.6143C12.4055 20.8376 12.6123 21 12.8502 21H15.9524C16.1903 21 16.3971 20.8376 16.454 20.6143L16.9193 18.7923L17.6328 18.3914L19.4683 18.9141C19.6958 18.9801 19.9388 18.8837 20.0577 18.6807L21.6244 16.0518C21.7433 15.8488 21.7071 15.5951 21.5365 15.4327L20.1663 14.1233ZM14.4013 16.5593C12.7881 16.5593 11.4697 15.2652 11.4697 13.6818C11.4697 12.0984 12.7881 10.8043 14.4013 10.8043C16.0145 10.8043 17.3329 12.0984 17.3329 13.6818C17.3329 15.2652 16.0145 16.5593 14.4013 16.5593Z"/>
</mask>
<path d="M20.1663 14.1233L20.1714 13.3164L21.5571 12.0223C21.7329 11.8599 21.7691 11.6061 21.6502 11.4031L20.1249 8.75395C20.006 8.55095 19.7682 8.45453 19.5355 8.51543L17.6949 9.01785L16.9193 8.57125L16.454 6.74932C16.3971 6.52602 16.1903 6.36362 15.9524 6.36362H12.8502C12.6124 6.36362 12.4055 6.52602 12.3487 6.74932L11.8833 8.57125L11.1078 9.01785L9.2671 8.51543C9.03443 8.45453 8.7966 8.55095 8.67768 8.75395L7.15241 11.4031C7.03349 11.6061 7.06968 11.8599 7.24548 12.0223L8.63114 13.3164L8.63631 14.1233L7.26616 15.4327C7.09553 15.5951 7.05934 15.8488 7.17826 16.0518L8.74489 18.6807C8.86381 18.8837 9.10682 18.9801 9.33432 18.9141L11.1698 18.3914L11.8833 18.7923L12.3487 20.6143C12.4055 20.8376 12.6123 21 12.8502 21H15.9524C16.1903 21 16.3971 20.8376 16.454 20.6143L16.9193 18.7923L17.6328 18.3914L19.4683 18.9141C19.6958 18.9801 19.9388 18.8837 20.0577 18.6807L21.6244 16.0518C21.7433 15.8488 21.7071 15.5951 21.5365 15.4327L20.1663 14.1233ZM14.4013 16.5593C12.7881 16.5593 11.4697 15.2652 11.4697 13.6818C11.4697 12.0984 12.7881 10.8043 14.4013 10.8043C16.0145 10.8043 17.3329 12.0984 17.3329 13.6818C17.3329 15.2652 16.0145 16.5593 14.4013 16.5593Z" fill="white"/>
<path d="M20.1663 14.1233L19.1663 14.117L19.1636 14.5483L19.4754 14.8463L20.1663 14.1233ZM20.1714 13.3164L19.4889 12.5855L19.1742 12.8795L19.1714 13.3101L20.1714 13.3164ZM21.5571 12.0223L20.8786 11.2877L20.8746 11.2914L21.5571 12.0223ZM21.6502 11.4031L20.7836 11.9021L20.7874 11.9086L21.6502 11.4031ZM20.1249 8.75395L20.9916 8.25498L20.9878 8.24849L20.1249 8.75395ZM19.5355 8.51543L19.2823 7.54796L19.2722 7.55072L19.5355 8.51543ZM17.6949 9.01785L17.1958 9.88444L17.5566 10.0922L17.9582 9.98256L17.6949 9.01785ZM16.9193 8.57125L15.9504 8.81872L16.0548 9.22737L16.4203 9.43784L16.9193 8.57125ZM16.454 6.74932L15.4849 6.99614L15.4851 6.99678L16.454 6.74932ZM12.3487 6.74932L13.3176 6.99678L13.3177 6.99614L12.3487 6.74932ZM11.8833 8.57125L12.3823 9.43784L12.7478 9.22737L12.8522 8.81872L11.8833 8.57125ZM11.1078 9.01785L10.8444 9.98256L11.246 10.0922L11.6068 9.88444L11.1078 9.01785ZM9.2671 8.51543L9.53044 7.55067L9.52032 7.54802L9.2671 8.51543ZM8.67768 8.75395L7.8148 8.24848L7.81105 8.25499L8.67768 8.75395ZM7.15241 11.4031L8.01528 11.9086L8.01903 11.9021L7.15241 11.4031ZM7.24548 12.0223L7.92804 11.2914L7.92405 11.2877L7.24548 12.0223ZM8.63114 13.3164L9.63112 13.31L9.62836 12.8794L9.3137 12.5856L8.63114 13.3164ZM8.63631 14.1233L9.3272 14.8463L9.63906 14.5483L9.63629 14.1169L8.63631 14.1233ZM7.26616 15.4327L7.9556 16.157L7.95704 16.1556L7.26616 15.4327ZM7.17826 16.0518L6.31539 16.5573L6.31923 16.5638L7.17826 16.0518ZM8.74489 18.6807L9.60776 18.1752L9.60392 18.1688L8.74489 18.6807ZM9.33432 18.9141L9.06042 17.9524L9.05579 17.9537L9.33432 18.9141ZM11.1698 18.3914L11.6597 17.5196L11.2965 17.3156L10.8959 17.4297L11.1698 18.3914ZM11.8833 18.7923L12.8522 18.5449L12.7463 18.1302L12.3732 17.9205L11.8833 18.7923ZM12.3487 20.6143L13.3177 20.3675L13.3176 20.3668L12.3487 20.6143ZM16.454 20.6143L15.4851 20.3668L15.4849 20.3675L16.454 20.6143ZM16.9193 18.7923L16.4294 17.9205L16.0563 18.1302L15.9504 18.5449L16.9193 18.7923ZM17.6328 18.3914L17.9067 17.4297L17.5061 17.3156L17.1429 17.5196L17.6328 18.3914ZM19.4683 18.9141L19.7468 17.9537L19.7422 17.9524L19.4683 18.9141ZM20.0577 18.6807L19.1987 18.1688L19.1949 18.1752L20.0577 18.6807ZM21.6244 16.0518L22.4834 16.5638L22.4872 16.5573L21.6244 16.0518ZM21.5365 15.4327L20.8456 16.1556L20.847 16.157L21.5365 15.4327ZM21.1663 14.1297L21.1714 13.3227L19.1714 13.3101L19.1663 14.117L21.1663 14.1297ZM20.854 14.0472L22.2397 12.7531L20.8746 11.2914L19.4889 12.5855L20.854 14.0472ZM22.2357 12.7568C22.7572 12.2751 22.869 11.5052 22.5131 10.8977L20.7874 11.9086C20.6693 11.707 20.7087 11.4447 20.8786 11.2877L22.2357 12.7568ZM22.5168 10.9042L20.9916 8.25499L19.2583 9.25292L20.7836 11.9021L22.5168 10.9042ZM20.9878 8.24849C20.6359 7.64775 19.9359 7.37694 19.2823 7.54802L19.7887 9.48284C19.6005 9.53212 19.3762 9.45415 19.2621 9.25941L20.9878 8.24849ZM19.2722 7.55072L17.4315 8.05315L17.9582 9.98256L19.7988 9.48013L19.2722 7.55072ZM18.1939 8.15126L17.4183 7.70466L16.4203 9.43784L17.1958 9.88444L18.1939 8.15126ZM17.8882 8.32379L17.4229 6.50185L15.4851 6.99678L15.9504 8.81872L17.8882 8.32379ZM17.423 6.5025C17.2524 5.8326 16.6439 5.36362 15.9524 5.36362V7.36362C15.7367 7.36362 15.5418 7.21943 15.4849 6.99614L17.423 6.5025ZM15.9524 5.36362H12.8502V7.36362H15.9524V5.36362ZM12.8502 5.36362C12.1588 5.36362 11.5502 5.8326 11.3796 6.5025L13.3177 6.99614C13.2609 7.21943 13.0659 7.36362 12.8502 7.36362V5.36362ZM11.3798 6.50185L10.9144 8.32379L12.8522 8.81872L13.3176 6.99678L11.3798 6.50185ZM11.3843 7.70466L10.6087 8.15126L11.6068 9.88444L12.3823 9.43784L11.3843 7.70466ZM11.3711 8.05315L9.53043 7.55072L9.00378 9.48013L10.8444 9.98256L11.3711 8.05315ZM9.52032 7.54802C8.86671 7.37694 8.16674 7.64775 7.81483 8.24849L9.54053 9.25941C9.42645 9.45415 9.20216 9.53212 9.01389 9.48284L9.52032 7.54802ZM7.81105 8.25499L6.28578 10.9042L8.01903 11.9021L9.5443 9.25292L7.81105 8.25499ZM6.28956 10.8977C5.93365 11.5052 6.04542 12.275 6.5669 12.7568L7.92405 11.2877C8.09394 11.4447 8.13332 11.707 8.01526 11.9086L6.28956 10.8977ZM6.56292 12.7531L7.94859 14.0472L9.3137 12.5856L7.92803 11.2914L6.56292 12.7531ZM7.63116 13.3228L7.63633 14.1297L9.63629 14.1169L9.63112 13.31L7.63116 13.3228ZM7.94543 13.4004L6.57527 14.7097L7.95704 16.1556L9.3272 14.8463L7.94543 13.4004ZM6.57672 14.7083C6.07127 15.1894 5.96091 15.9521 6.31541 16.5573L8.04111 15.5464C8.15778 15.7455 8.11979 16.0007 7.95559 16.157L6.57672 14.7083ZM6.31923 16.5638L7.88586 19.1926L9.60392 18.1688L8.03729 15.5399L6.31923 16.5638ZM7.88204 19.1862C8.23412 19.7872 8.94887 20.0671 9.61285 19.8746L9.05579 17.9537C9.26477 17.8931 9.49351 17.9802 9.60774 18.1752L7.88204 19.1862ZM9.60822 19.8759L11.4437 19.3532L10.8959 17.4297L9.06042 17.9524L9.60822 19.8759ZM10.6799 19.2632L11.3935 19.6641L12.3732 17.9205L11.6597 17.5196L10.6799 19.2632ZM10.9144 19.0398L11.3798 20.8617L13.3176 20.3668L12.8522 18.5449L10.9144 19.0398ZM11.3796 20.8611C11.5502 21.5309 12.1587 22 12.8502 22V20C13.0659 20 13.2609 20.1442 13.3177 20.3675L11.3796 20.8611ZM12.8502 22H15.9524V20H12.8502V22ZM15.9524 22C16.6439 22 17.2524 21.531 17.423 20.8611L15.4849 20.3675C15.5418 20.1442 15.7367 20 15.9524 20V22ZM17.4229 20.8617L17.8882 19.0398L15.9504 18.5449L15.4851 20.3668L17.4229 20.8617ZM17.4092 19.6641L18.1227 19.2632L17.1429 17.5196L16.4294 17.9205L17.4092 19.6641ZM17.3589 19.3532L19.1944 19.8759L19.7422 17.9524L17.9067 17.4297L17.3589 19.3532ZM19.1898 19.8746C19.8537 20.0671 20.5685 19.7872 20.9206 19.1862L19.1949 18.1752C19.3091 17.9802 19.5379 17.8931 19.7468 17.9537L19.1898 19.8746ZM20.9168 19.1926L22.4834 16.5638L20.7653 15.5399L19.1987 18.1688L20.9168 19.1926ZM22.4872 16.5573C22.8417 15.9521 22.7313 15.1894 22.2259 14.7083L20.847 16.157C20.6828 16.0007 20.6448 15.7455 20.7615 15.5464L22.4872 16.5573ZM22.2273 14.7097L20.8572 13.4004L19.4754 14.8463L20.8456 16.1556L22.2273 14.7097ZM14.4013 15.5593C13.3228 15.5593 12.4697 14.6954 12.4697 13.6818H10.4697C10.4697 15.835 12.2535 17.5593 14.4013 17.5593V15.5593ZM12.4697 13.6818C12.4697 12.6681 13.3228 11.8043 14.4013 11.8043V9.80426C12.2535 9.80426 10.4697 11.5286 10.4697 13.6818H12.4697ZM14.4013 11.8043C15.4798 11.8043 16.3329 12.6681 16.3329 13.6818H18.3329C18.3329 11.5286 16.5491 9.80426 14.4013 9.80426V11.8043ZM16.3329 13.6818C16.3329 14.6954 15.4798 15.5593 14.4013 15.5593V17.5593C16.5491 17.5593 18.3329 15.835 18.3329 13.6818H16.3329Z" fill="#8014EE" mask="url(#path-3-outside-1_81_3439)"/>
<defs>
<filter id="filter0_d_81_3439" x="0.719971" y="0" width="28" height="31" filterUnits="userSpaceOnUse" color-interpolation-filters="sRGB">
<feFlood flood-opacity="0" result="BackgroundImageFix"/>
<feColorMatrix in="SourceAlpha" type="matrix" values="0 0 0 0 0 0 0 0 0 0 0 0 0 0 0 0 0 0 127 0" result="hardAlpha"/>
<feOffset dy="3"/>
<feComposite in2="hardAlpha" operator="out"/>
<feColorMatrix type="matrix" values="0 0 0 0 0.469182 0 0 0 0 0.180278 0 0 0 0 0.983333 0 0 0 1 0"/>
<feBlend mode="normal" in2="BackgroundImageFix" result="effect1_dropShadow_81_3439"/>
<feBlend mode="normal" in="SourceGraphic" in2="effect1_dropShadow_81_3439" result="shape"/>
</filter>
</defs>
</svg>
