<svg width="25" height="24" viewBox="0 0 25 24" fill="none" xmlns="http://www.w3.org/2000/svg">
<path d="M24.22 12C24.22 18.3513 19.0712 23.5 12.72 23.5C6.3687 23.5 1.21997 18.3513 1.21997 12C1.21997 5.64873 6.3687 0.5 12.72 0.5C19.0712 0.5 24.22 5.64873 24.22 12Z" stroke="white"/>
<path d="M7.39707 14.9865C6.93525 14.7377 6.62139 14.2496 6.62139 13.6882V9.26662C6.62139 8.45263 7.28126 7.79275 8.09525 7.79275H10.7762L14.7878 4.4497C15.0527 4.22897 15.3866 4.10809 15.7314 4.10809H16.2015C17.0155 4.10809 17.6754 4.76796 17.6754 5.58196V6.36616L7.39707 14.9865ZM17.6754 10.2134V17.3729C17.6754 18.1869 17.0155 18.8467 16.2015 18.8467H15.7314C15.3866 18.8467 15.0527 18.7259 14.7878 18.5051L11.2771 15.5796L17.6754 10.2134ZM6.44024 18.6744C6.1284 18.936 5.66359 18.8952 5.40205 18.5834C5.14051 18.2715 5.18129 17.8067 5.49313 17.5452L18.6757 6.48902C18.9875 6.22748 19.4523 6.26825 19.7139 6.58009C19.9754 6.89193 19.9346 7.35675 19.6228 7.61829L6.44024 18.6744Z" fill="white"/>
</svg>
