<svg width="25" height="24" viewBox="0 0 25 24" fill="none" xmlns="http://www.w3.org/2000/svg">
<path d="M24.22 12C24.22 18.3513 19.0712 23.5 12.72 23.5C6.3687 23.5 1.21997 18.3513 1.21997 12C1.21997 5.64873 6.3687 0.5 12.72 0.5C19.0712 0.5 24.22 5.64873 24.22 12Z" stroke="white"/>
<path d="M16.3494 14.5194C16.0303 14.7746 15.5517 14.7427 15.2805 14.4077C15.0093 14.0727 15.0731 13.594 15.4081 13.3228C15.8389 12.9718 16.1101 12.4294 16.1101 11.8391C16.1101 11.2009 15.807 10.6426 15.3283 10.2916C15.0252 10.0682 14.9773 9.62151 15.2167 9.33433L15.2805 9.27052C15.5357 8.96739 16.0144 8.90358 16.3175 9.14289C17.1152 9.76509 17.6257 10.7542 17.6257 11.8391C17.6257 12.924 17.1311 13.8812 16.3494 14.5194Z" fill="white"/>
<path d="M18.088 16.6572C17.7689 16.9124 17.3063 16.8486 17.035 16.5455C16.7798 16.2264 16.8117 15.7478 17.1308 15.4925C18.1837 14.6151 18.8697 13.3068 18.8697 11.8391C18.8697 10.3713 18.1837 9.04713 17.1308 8.18561C16.8117 7.93035 16.7798 7.45173 17.035 7.13265C17.2903 6.81357 17.7689 6.74975 18.088 7.00502C19.492 8.13775 20.4013 9.87673 20.4013 11.8231C20.3854 13.7855 19.492 15.5244 18.088 16.6572Z" fill="white"/>
<path d="M11.8984 17.8218L8.02156 14.8385H6.12304C5.62846 14.8385 5.22961 14.4396 5.22961 13.945V9.73319C5.22961 9.23862 5.62846 8.83977 6.12304 8.83977H8.02156L11.9143 5.85637C12.6003 5.32989 13.5735 5.80851 13.5735 6.68598V17.0082C13.5735 17.8538 12.5844 18.3483 11.8984 17.8218Z" fill="white"/>
</svg>
